<?xml version="1.0" standalone="no"?><!DOCTYPE svg PUBLIC "-//W3C//DTD SVG 1.1//EN" "http://www.w3.org/Graphics/SVG/1.1/DTD/svg11.dtd"><svg t="1530775580152" class="icon" style="" viewBox="0 0 1137 1024" version="1.1" xmlns="http://www.w3.org/2000/svg" p-id="3065" xmlns:xlink="http://www.w3.org/1999/xlink" width="222.0703125" height="200"><defs><style type="text/css"></style></defs><path d="M1052.444444 1024H85.333333a85.333333 85.333333 0 0 1-85.333333-85.333333V85.333333a85.333333 85.333333 0 0 1 85.333333-85.333333h967.111111a85.333333 85.333333 0 0 1 85.333334 85.333333v853.333334a85.333333 85.333333 0 0 1-85.333334 85.333333z m-212.195555-443.733333l-227.271111-213.048889-0.853334-0.853334-15.36-13.937777a48.355556 48.355556 0 0 0-62.293333 0l-15.644444 13.937777c-0.284444 0.284444-0.284444 0.568889-0.568889 0.853334l-221.582222 209.92a36.067556 36.067556 0 0 0 0 55.466666l15.36 9.102223a47.872 47.872 0 0 0 62.008888-5.12l191.431112-182.613334 197.12 186.026667a48.355556 48.355556 0 0 0 62.293333 4.835556l15.36-8.817778a36.750222 36.750222 0 0 0 0-55.751111z" p-id="3066" fill="#bfbfbf"></path></svg>