<?xml version="1.0" standalone="no"?><!DOCTYPE svg PUBLIC "-//W3C//DTD SVG 1.1//EN" "http://www.w3.org/Graphics/SVG/1.1/DTD/svg11.dtd"><svg t="1533865730448" class="icon" style="" viewBox="0 0 1024 1024" version="1.1" xmlns="http://www.w3.org/2000/svg" p-id="7100" xmlns:xlink="http://www.w3.org/1999/xlink" width="200" height="200"><defs><style type="text/css"></style></defs><path d="M990.310395 823.654137L738.08449 572.000804c51.619946-28.247466 110.865751-44.319207 173.924485-44.319207 4.535417 0 8.93898 0.590634 13.423823 0.778481V206.29555c0-29.566006-24.053425-53.534539-53.688068-53.534539H317.815152l-80.557388-80.365929H898.558058c59.299991 0 107.377941 47.965964 107.377941 107.144939V768.672817c0 20.220627-5.801577 38.940285-15.625604 54.977708v0.003612z m-239.396328-563.795149c37.069042 0 67.11189 29.965181 67.11189 66.976424 0 36.958863-30.042848 66.947524-67.11189 66.947524-37.070848 0-67.108278-29.988662-67.108278-66.947524 0-37.011243 30.03743-66.976424 67.108278-66.976424z m204.501974 699.380819c-15.728559 15.696047-41.234184 15.696047-56.962743 0L63.279093 126.061475c-15.728559-15.688822-15.728559-41.129423 0-56.823664 15.728559-15.665341 41.230572-15.665341 56.964549 0l835.172399 833.200007c15.701466 15.696047 15.701466 41.111361 0 56.807408v-0.005419zM93.237049 286.634385V822.288635 527.679791C154.679216 494.904133 224.637708 476.1339 298.808304 474.656413L781.460851 956.165622H120.079276c-59.299991 0-107.376135-47.993057-107.376135-107.150357V259.855375c0-20.191727 5.933431-38.884293 15.677985-55.004801l67.191364 67.026998c-1.369114 4.71062-2.339054 9.6127-2.339054 14.755007h0.003613z" fill="" p-id="7101"></path></svg>