<?xml version="1.0" standalone="no"?><!DOCTYPE svg PUBLIC "-//W3C//DTD SVG 1.1//EN" "http://www.w3.org/Graphics/SVG/1.1/DTD/svg11.dtd"><svg t="1530671207214" class="icon" style="" viewBox="0 0 1024 1024" version="1.1" xmlns="http://www.w3.org/2000/svg" p-id="2555" xmlns:xlink="http://www.w3.org/1999/xlink" width="200" height="200"><defs><style type="text/css"></style></defs><path d="M78.770806 630.153846h188.022154L551.386191 859.372308V166.754462L275.063729 393.846154h-196.923077C78.692037 393.846154 78.770806 630.153846 78.770806 630.153846zM0.001575 393.846154c0-43.480615 35.367385-78.769231 78.139077-78.769231h168.723693L630.155422 0v1024L239.066191 708.923077H78.298191A78.296615 78.296615 0 0 1 0.001575 630.153846V393.846154zM815.105575 247.492923l169.747693-164.391385-54.823385-56.556307-169.747692 164.391384zM759.33696 736.334769l164.470154 169.747693 56.556308-54.823385-164.391385-169.747692zM787.063729 512l236.307693 3.780923 1.260307-78.769231-236.307692-3.780923z" fill="#F55151" p-id="2556"></path></svg>