<svg xmlns="http://www.w3.org/2000/svg" viewBox="0 0 123.5 123.5"><defs><style>.cls-1{fill:none;stroke:#ffdad1;stroke-miterlimit:10;stroke-width:1.5px;}.cls-2{font-size:25.31px;fill:#f7bab0;font-family:SourceHanSansCN-Medium, Source Han Sans CN;letter-spacing:0.2em;}.cls-3,.cls-4,.cls-5{font-size:12.18px;fill:#ffcdc5;font-family:ArialMT, Arial;}.cls-4{letter-spacing:-0.02em;}.cls-5{letter-spacing:-0.06em;}</style></defs><title>资源 1</title><g id="图层_2" data-name="图层 2"><g id="图层_1-2" data-name="图层 1"><circle class="cls-1" cx="61.75" cy="61.75" r="53"/><circle class="cls-1" cx="61.75" cy="61.75" r="61"/><path class="cls-1" d="M93.1,68.2a32,32,0,0,1-54,16.18"/><path class="cls-1" d="M31.2,52.2A32,32,0,0,1,86.44,41.4"/><text class="cls-2" transform="translate(37.46 80.92) rotate(-22.58)">有效</text><text class="cls-3" transform="translate(27.31 52.58) rotate(-69.17)">T</text><text class="cls-3" transform="matrix(0.55, -0.84, 0.84, 0.55, 29.89, 45.68)">E</text><text class="cls-3" transform="matrix(0.72, -0.69, 0.69, 0.72, 34.27, 38.98)">A</text><text class="cls-3" transform="matrix(0.86, -0.51, 0.51, 0.86, 40.06, 33.42)">E</text><text class="cls-3" transform="matrix(0.95, -0.31, 0.31, 0.95, 46.93, 29.29)">E</text><text class="cls-3" transform="translate(54.55 26.8) rotate(-5.12)">S</text><text class="cls-3" transform="matrix(1, 0.07, -0.07, 1, 62.61, 26.27)">.</text><text class="cls-3" transform="translate(66.01 26.29) rotate(13.94)">C</text><text class="cls-3" transform="matrix(0.88, 0.47, -0.47, 0.88, 74.44, 28.31)">O</text><text class="cls-3" transform="translate(82.65 32.67) rotate(43.9)">M</text><text class="cls-4" transform="translate(30.33 95.28) rotate(33.15)">T</text><text class="cls-3" transform="translate(37.36 100.21) rotate(33.24)">E</text><text class="cls-3" transform="translate(56.34 107.78) rotate(2.15)">E</text><text class="cls-3" transform="translate(65.78 107.3) rotate(-5.39)">E</text><text class="cls-3" transform="translate(75.63 106.01) rotate(-17.66)">S</text><text class="cls-3" transform="matrix(0.73, -0.68, 0.68, 0.73, 86.69, 100.78)">C</text><text class="cls-3" transform="translate(94.91 93.9) rotate(-55.62)">O</text><text class="cls-3" transform="translate(100.55 84.91) rotate(-61.39)">M</text><text class="cls-3" transform="translate(82.79 102.65) rotate(-31.62)">.</text><text class="cls-5" transform="translate(46.78 105.82) rotate(14.68)">A</text></g></g></svg>